<?xml version="1.0" encoding="UTF-8" standalone="no"?>
<!DOCTYPE svg PUBLIC "-//W3C//DTD SVG 1.1//EN" "http://www.w3.org/Graphics/SVG/1.1/DTD/svg11.dtd">
<svg xmlns="http://www.w3.org/2000/svg" version="1.1" viewBox="95 0 770 307">
<path fill="#c5c5c5" d="
  M 307.88 55.21
  C 323.02 59.61 323.60 73.26 323.38 87.26
  Q 322.10 169.36 321.71 217.58
  Q 321.63 227.50 320.22 231.28
  C 316.78 240.50 308.59 246.30 298.50 246.27
  Q 190.86 245.96 133.68 245.78
  Q 124.35 245.76 121.11 244.62
  C 113.89 242.08 108.43 235.97 106.21 228.51
  Q 105.21 225.13 105.25 218.53
  Q 105.67 157.74 106.11 130.75
  Q 106.56 102.95 106.38 81.00
  C 106.31 72.21 108.22 64.22 115.10 58.59
  Q 121.18 53.61 128.75 53.56
  Q 148.30 53.44 157.75 53.52
  Q 210.64 53.97 298.25 54.32
  C 300.50 54.33 305.08 54.40 307.88 55.21
  Z
  M 162.2070 76.1262
  A 0.26 0.26 0.0 0 0 161.9498 75.8635
  L 150.5904 75.7446
  A 0.26 0.26 0.0 0 0 150.3277 76.0018
  L 148.7930 222.5538
  A 0.26 0.26 0.0 0 0 149.0502 222.8165
  L 160.4096 222.9354
  A 0.26 0.26 0.0 0 0 160.6723 222.6782
  L 162.2070 76.1262
  Z
  M 182.1446 76.6127
  A 0.48 0.48 0.0 0 0 181.6722 76.1252
  L 171.9734 75.9729
  A 0.48 0.48 0.0 0 0 171.4859 76.4453
  L 169.1954 222.2473
  A 0.48 0.48 0.0 0 0 169.6678 222.7348
  L 179.3666 222.8871
  A 0.48 0.48 0.0 0 0 179.8541 222.4147
  L 182.1446 76.6127
  Z
  M 203.4770 76.8241
  A 0.39 0.39 0.0 0 0 203.0924 76.4287
  L 191.4136 76.2656
  A 0.39 0.39 0.0 0 0 191.0182 76.6501
  L 188.9830 222.3959
  A 0.39 0.39 0.0 0 0 189.3676 222.7913
  L 201.0464 222.9544
  A 0.39 0.39 0.0 0 0 201.4418 222.5699
  L 203.4770 76.8241
  Z
  M 263.0863 76.5574
  A 0.26 0.26 0.0 0 0 262.8300 76.2938
  L 251.8510 76.1405
  A 0.26 0.26 0.0 0 0 251.5874 76.3968
  L 249.5537 222.0426
  A 0.26 0.26 0.0 0 0 249.8100 222.3062
  L 260.7890 222.4595
  A 0.26 0.26 0.0 0 0 261.0526 222.2032
  L 263.0863 76.5574
  Z
  M 141.8791 76.8417
  A 0.53 0.53 0.0 0 0 141.3556 76.3052
  L 129.9364 76.1657
  A 0.53 0.53 0.0 0 0 129.4000 76.6892
  L 127.6209 222.2983
  A 0.53 0.53 0.0 0 0 128.1444 222.8348
  L 139.5636 222.9743
  A 0.53 0.53 0.0 0 0 140.1000 222.4508
  L 141.8791 76.8417
  Z
  M 225.1486 76.8706
  A 0.48 0.48 0.0 0 0 224.6745 76.3847
  L 213.3353 76.2462
  A 0.48 0.48 0.0 0 0 212.8495 76.7203
  L 211.0714 222.2494
  A 0.48 0.48 0.0 0 0 211.5455 222.7353
  L 222.8847 222.8738
  A 0.48 0.48 0.0 0 0 223.3705 222.3997
  L 225.1486 76.8706
  Z
  M 242.5772 77.1839
  A 0.69 0.69 0.0 0 0 241.8945 76.4867
  L 235.6548 76.4213
  A 0.69 0.69 0.0 0 0 234.9576 77.1041
  L 233.4428 221.7561
  A 0.69 0.69 0.0 0 0 234.1255 222.4533
  L 240.3652 222.5187
  A 0.69 0.69 0.0 0 0 241.0624 221.8359
  L 242.5772 77.1839
  Z
  M 279.7022 77.0273
  A 0.56 0.56 0.0 0 0 279.1501 76.4596
  L 273.0707 76.3747
  A 0.56 0.56 0.0 0 0 272.5029 76.9268
  L 270.4778 221.9527
  A 0.56 0.56 0.0 0 0 271.0299 222.5204
  L 277.1093 222.6053
  A 0.56 0.56 0.0 0 0 277.6771 222.0532
  L 279.7022 77.0273
  Z
  M 300.5352 76.8524
  A 0.38 0.38 0.0 0 0 300.1605 76.4671
  L 288.7016 76.3071
  A 0.38 0.38 0.0 0 0 288.3163 76.6818
  L 286.2848 222.1676
  A 0.38 0.38 0.0 0 0 286.6595 222.5529
  L 298.1184 222.7129
  A 0.38 0.38 0.0 0 0 298.5037 222.3382
  L 300.5352 76.8524
  Z"
/>
<path fill="#c5c5c5" d="
  M 350.41 152.13
  A 1.04 1.04 0.0 0 1 351.75 151.70
  C 359.47 155.27 370.55 157.70 378.10 153.83
  Q 382.44 151.61 382.92 146.65
  Q 383.90 136.70 374.35 133.32
  C 367.15 130.78 357.96 129.64 351.14 123.11
  Q 345.79 117.99 345.46 109.71
  C 344.83 93.52 356.00 84.53 371.57 83.90
  Q 383.65 83.42 394.91 88.47
  A 1.89 1.88 -63.0 0 1 395.77 91.14
  L 390.48 100.31
  A 1.01 1.01 0.0 0 1 389.27 100.76
  C 381.95 98.20 362.44 94.51 360.03 105.70
  C 358.60 112.33 363.53 115.51 369.12 117.00
  C 385.08 121.25 400.34 126.51 398.88 146.63
  C 397.28 168.63 375.76 172.43 358.15 168.54
  Q 350.76 166.90 345.23 163.26
  A 1.15 1.14 31.9 0 1 344.87 161.73
  L 350.41 152.13
  Z"
/>
<rect fill="#c5c5c5" x="-7.52" y="-6.67" transform="translate(414.72,90.60) rotate(0.1)" width="15.04" height="13.34" rx="1.84"/>
<path fill="#fa6100" d="
  M 822.98 150.84
  A 0.40 0.40 0.0 0 0 823.75 150.84
  L 840.73 89.52
  A 0.97 0.96 -82.1 0 1 841.66 88.81
  L 856.85 88.81
  A 0.66 0.66 0.0 0 1 857.50 89.57
  Q 856.78 94.09 854.95 100.22
  Q 837.02 160.39 834.85 167.65
  A 1.99 1.99 0.0 0 1 832.94 169.08
  L 813.70 169.08
  A 2.03 2.03 0.0 0 1 811.78 167.71
  Q 809.43 160.98 807.14 153.37
  Q 798.82 125.68 789.07 94.64
  Q 788.55 92.98 788.03 89.82
  A 0.79 0.79 0.0 0 1 788.81 88.90
  L 805.39 88.90
  A 0.52 0.51 81.6 0 1 805.88 89.27
  L 822.98 150.84
  Z"
/>
<path fill="#fa6100" d="
  M 649.32 168.11
  L 649.28 91.15
  A 2.18 2.18 0.0 0 1 650.59 89.15
  Q 650.68 89.11 652.28 89.10
  Q 676.84 88.96 677.31 88.95
  C 686.59 88.67 694.28 89.79 700.84 94.97
  C 707.95 100.57 709.30 108.74 709.25 117.52
  C 709.16 133.88 698.48 143.32 682.74 144.19
  Q 674.92 144.63 667.14 144.29
  A 0.83 0.82 -88.7 0 0 666.28 145.12
  L 666.28 167.57
  A 1.14 1.14 0.0 0 1 665.14 168.71
  L 649.92 168.71
  A 0.60 0.60 0.0 0 1 649.32 168.11
  Z
  M 666.20 103.82
  L 666.42 129.64
  A 0.39 0.39 0.0 0 0 666.82 130.03
  L 680.55 129.91
  A 11.94 11.01 -0.5 0 0 692.39 118.80
  L 692.35 114.22
  A 11.94 11.01 -0.5 0 0 680.31 103.31
  L 666.58 103.43
  A 0.39 0.39 0.0 0 0 666.20 103.82
  Z"
/>
<path fill="#fa6100" d="
  M 719.26 90.70
  A 1.82 1.82 0.0 0 1 721.08 88.88
  L 751.12 88.88
  A 35.17 35.12 -90.0 0 1 786.24 124.05
  L 786.24 133.37
  A 35.17 35.12 -90.0 0 1 751.12 168.54
  L 721.08 168.54
  A 1.82 1.82 0.0 0 1 719.26 166.72
  L 719.26 90.70
  Z
  M 736.37 104.23
  L 736.37 153.25
  A 0.98 0.98 0.0 0 0 737.35 154.23
  L 749.81 154.23
  A 20.20 19.46 90.0 0 0 769.27 134.03
  L 769.27 123.45
  A 20.20 19.46 -90.0 0 0 749.81 103.25
  L 737.35 103.25
  A 0.98 0.98 0.0 0 0 736.37 104.23
  Z"
/>
<path fill="#c5c5c5" d="
  M 499.48 108.12
  L 509.49 108.12
  A 1.44 1.41 68.9 0 1 510.56 108.61
  Q 511.99 110.24 512.66 112.72
  A 0.27 0.27 0.0 0 0 513.11 112.84
  C 521.15 105.14 536.90 104.18 543.90 113.89
  A 0.40 0.40 0.0 0 0 544.51 113.94
  Q 552.83 105.36 565.51 107.36
  C 575.96 109.00 579.67 117.28 579.78 127.01
  Q 580.01 146.38 579.77 167.46
  A 1.35 1.35 0.0 0 1 578.42 168.79
  L 566.13 168.79
  A 1.48 1.47 0.0 0 1 564.65 167.32
  Q 564.70 146.84 564.55 128.52
  Q 564.53 125.92 563.30 123.21
  C 561.51 119.27 556.01 119.13 552.77 120.78
  Q 547.22 123.59 547.23 130.27
  Q 547.27 155.86 547.18 167.32
  A 1.49 1.48 -89.8 0 1 545.70 168.80
  L 532.90 168.80
  A 0.72 0.70 81.8 0 1 532.22 168.28
  Q 531.78 166.81 531.76 164.75
  Q 531.68 158.87 531.74 129.51
  C 531.75 124.97 530.04 120.35 524.98 119.77
  C 518.24 119.00 513.56 123.67 513.57 130.26
  Q 513.65 159.66 513.48 167.56
  A 1.32 1.32 0.0 0 1 512.16 168.85
  L 499.95 168.85
  A 1.53 1.53 0.0 0 1 498.42 167.32
  L 498.42 109.18
  A 1.06 1.06 0.0 0 1 499.48 108.12
  Z"
/>
<path fill="#c5c5c5" d="
  M 623.85 164.21
  A 0.30 0.30 0.0 0 0 623.41 164.08
  C 612.89 171.08 592.89 173.32 588.42 157.65
  C 586.04 149.28 587.83 139.06 596.30 135.09
  Q 599.48 133.60 603.55 132.84
  Q 613.17 131.04 623.27 130.65
  A 0.94 0.93 2.9 0 0 624.16 129.85
  Q 625.36 120.66 616.50 120.18
  Q 606.98 119.66 596.67 121.40
  A 1.01 1.01 0.0 0 1 595.49 120.41
  L 595.49 110.47
  A 1.25 1.24 -10.7 0 1 596.29 109.31
  Q 599.51 108.08 602.99 107.68
  C 611.53 106.69 622.11 106.09 628.98 109.95
  Q 638.67 115.40 638.29 127.74
  Q 637.65 147.84 638.23 167.57
  A 0.80 0.79 -0.7 0 1 637.43 168.38
  L 626.09 168.38
  A 0.83 0.83 0.0 0 1 625.32 167.86
  L 623.85 164.21
  Z
  M 623.02 141.53
  Q 616.02 141.54 610.54 142.82
  C 605.14 144.08 600.72 147.68 602.95 153.61
  Q 603.76 155.76 605.67 156.27
  Q 614.65 158.65 622.75 153.12
  A 1.60 1.58 73.2 0 0 623.45 151.80
  L 623.45 141.96
  A 0.43 0.43 0.0 0 0 623.02 141.53
  Z"
/>
<path fill="#c5c5c5" d="
  M 470.83 111.85
  L 472.63 108.74
  A 1.07 1.06 -74.7 0 1 473.55 108.21
  L 484.12 108.21
  A 1.54 1.53 0.2 0 1 485.66 109.75
  Q 485.57 139.35 485.89 160.99
  C 486.06 171.75 484.72 180.97 474.80 186.83
  C 466.93 191.48 454.43 190.32 445.29 189.65
  Q 441.61 189.39 438.23 188.30
  A 0.78 0.77 14.1 0 1 437.71 187.44
  L 439.45 177.09
  A 1.13 1.13 0.0 0 1 440.66 176.15
  C 447.26 176.69 456.67 177.65 463.76 176.02
  C 470.01 174.57 471.01 168.20 470.90 162.67
  A 0.48 0.47 -13.2 0 0 470.22 162.25
  C 463.28 165.58 452.69 166.52 445.81 164.98
  C 431.66 161.83 430.81 144.99 431.51 132.88
  C 432.44 116.95 438.83 106.06 456.76 107.20
  Q 464.17 107.68 470.31 111.97
  A 0.36 0.36 0.0 0 0 470.83 111.85
  Z
  M 470.36 148.17
  L 470.36 125.91
  A 5.72 5.72 0.0 0 0 464.64 120.19
  L 457.82 120.19
  A 11.43 11.00 -90.0 0 0 446.82 131.62
  L 446.82 142.46
  A 11.43 11.00 -90.0 0 0 457.82 153.89
  L 464.64 153.89
  A 5.72 5.72 0.0 0 0 470.36 148.17
  Z"
/>
<rect fill="#c5c5c5" x="-7.71" y="-30.29" transform="translate(415.17,138.51) rotate(-0.1)" width="15.42" height="60.58" rx="1.47"/>
<path fill="#e06724" d="
  M 555.14 197.51
  Q 554.93 199.32 553.43 201.39
  A 0.65 0.64 -52.7 0 1 552.50 201.52
  L 551.03 200.34
  A 1.30 1.28 64.5 0 0 550.26 200.06
  Q 548.55 200.03 547.66 199.46
  A 0.50 0.50 0.0 0 0 546.94 199.67
  Q 546.62 200.38 546.08 200.89
  A 0.96 0.96 0.0 0 1 544.49 200.39
  Q 544.05 198.42 544.82 197.03
  A 0.92 0.92 0.0 0 1 545.55 196.56
  Q 549.10 196.26 551.20 198.37
  A 0.76 0.74 -34.9 0 0 552.08 198.52
  Q 552.92 198.09 553.75 196.96
  A 0.77 0.77 0.0 0 1 555.14 197.51
  Z"
/>
<path fill="#e06724" d="
  M 591.20 214.31
  A 12.20 12.20 0.0 0 1 579.00 226.51
  A 12.20 12.20 0.0 0 1 566.80 214.31
  A 12.20 12.20 0.0 0 1 579.00 202.11
  A 12.20 12.20 0.0 0 1 591.20 214.31
  Z
  M 578.9033 205.9408
  A 8.36 7.73 -90.8 0 0 571.2908 214.4079
  A 8.36 7.73 -90.8 0 0 579.1367 222.6592
  A 8.36 7.73 -90.8 0 0 586.7492 214.1921
  A 8.36 7.73 -90.8 0 0 578.9033 205.9408
  Z"
/>
<path fill="#e06724" d="
  M 614.16 214.42
  Q 614.21 217.14 614.86 218.16
  Q 619.85 226.02 627.70 220.08
  A 0.82 0.81 56.7 0 1 628.90 220.33
  L 630.01 222.26
  A 0.88 0.88 0.0 0 1 629.86 223.34
  C 622.05 230.75 610.01 225.24 609.82 214.50
  C 609.62 203.76 621.44 197.80 629.52 204.92
  A 0.88 0.88 0.0 0 1 629.71 205.99
  L 628.67 207.96
  A 0.82 0.81 -58.8 0 1 627.48 208.26
  Q 619.42 202.61 614.72 210.64
  Q 614.11 211.69 614.16 214.42
  Z"
/>
<path fill="#e06724" d="
  M 647.0493 202.0711
  A 12.32 11.99 -97.7 0 1 660.5819 212.6735
  A 12.32 11.99 -97.7 0 1 650.3507 226.4889
  A 12.32 11.99 -97.7 0 1 636.8181 215.8865
  A 12.32 11.99 -97.7 0 1 647.0493 202.0711
  Z
  M 648.5488 205.8229
  A 8.45 7.70 -91.5 0 0 641.0726 214.4716
  A 8.45 7.70 -91.5 0 0 648.9912 222.7171
  A 8.45 7.70 -91.5 0 0 656.4674 214.0684
  A 8.45 7.70 -91.5 0 0 648.5488 205.8229
  Z"
/>
<path fill="#e06724" d="
  M 524.98 226.40
  Q 525.27 227.65 526.81 228.34
  A 1.06 1.04 0.9 0 1 527.35 228.89
  Q 528.07 230.63 526.46 231.76
  Q 523.34 233.97 520.47 232.58
  A 1.12 1.12 0.0 0 1 521.14 230.47
  L 523.31 230.84
  A 0.79 0.79 0.0 0 0 523.89 229.41
  Q 522.52 228.47 522.17 226.83
  A 1.24 1.21 -87.1 0 0 521.37 225.93
  Q 512.18 222.78 512.82 213.31
  C 513.50 203.39 524.43 198.72 532.04 204.70
  A 1.56 1.55 -40.9 0 1 531.85 207.27
  L 530.18 208.24
  A 0.58 0.58 0.0 0 1 529.52 208.18
  L 528.62 207.41
  A 4.55 4.53 71.7 0 0 526.76 206.47
  Q 519.61 204.76 517.26 211.78
  C 514.63 219.64 524.51 225.94 530.07 219.76
  A 0.85 0.85 0.0 0 1 531.16 219.61
  Q 532.16 220.26 532.64 221.42
  A 1.11 1.10 50.0 0 1 532.56 222.43
  Q 530.11 226.40 525.60 225.73
  A 0.56 0.55 -2.5 0 0 524.98 226.40
  Z"
/>
<path fill="#e06724" d="
  M 770.18 220.48
  A 1.27 1.27 0.0 0 1 772.24 220.67
  L 772.87 221.76
  A 1.92 1.91 -37.9 0 1 772.58 224.05
  C 768.52 228.19 760.91 226.91 757.17 223.73
  C 751.24 218.67 752.01 208.57 758.21 204.06
  C 762.26 201.12 768.59 201.80 772.65 204.51
  A 1.45 1.45 0.0 0 1 773.10 206.44
  L 772.24 207.93
  A 1.03 1.03 0.0 0 1 770.63 208.16
  C 767.81 205.45 762.25 205.44 759.50 208.53
  C 755.56 212.98 757.14 221.60 763.75 222.61
  Q 767.82 223.22 770.18 220.48
  Z"
/>
<path fill="#e06724" d="
  M 549.93 220.86
  Q 545.86 220.86 545.32 220.87
  A 1.07 1.07 0.0 0 0 544.34 221.52
  L 542.78 225.43
  A 1.56 1.55 10.8 0 1 541.34 226.40
  L 539.12 226.40
  A 0.79 0.79 0.0 0 1 538.39 225.29
  Q 542.74 215.37 546.34 206.52
  Q 547.73 203.09 549.91 203.08
  Q 552.09 203.08 553.49 206.51
  Q 557.11 215.36 561.47 225.27
  A 0.79 0.79 0.0 0 1 560.75 226.39
  L 558.52 226.39
  A 1.56 1.55 -10.9 0 1 557.08 225.42
  L 555.51 221.51
  A 1.07 1.07 0.0 0 0 554.53 220.86
  Q 553.99 220.85 549.93 220.86
  Z
  M 546.41 217.11
  A 0.40 0.40 0.0 0 0 546.79 217.65
  L 553.41 217.55
  A 0.40 0.40 0.0 0 0 553.77 216.99
  L 550.33 208.93
  A 0.40 0.40 0.0 0 0 549.59 208.94
  L 546.41 217.11
  Z"
/>
<path fill="#e06724" d="
  M 688.59 211.68
  A 0.16 0.16 0.0 0 0 688.30 211.60
  L 681.60 223.21
  A 1.05 1.05 0.0 0 1 679.78 223.21
  L 673.63 212.56
  A 0.41 0.41 0.0 0 0 672.87 212.77
  L 672.87 225.51
  A 0.93 0.93 0.0 0 1 671.94 226.44
  L 669.80 226.44
  A 0.99 0.99 0.0 0 1 668.81 225.45
  L 668.81 203.60
  A 0.82 0.80 -8.2 0 1 669.40 202.83
  Q 672.04 202.10 673.33 204.36
  Q 676.98 210.76 680.41 217.33
  A 0.31 0.31 0.0 0 0 680.95 217.34
  Q 685.17 210.31 688.26 204.50
  C 689.12 202.87 690.10 202.40 691.76 202.76
  Q 692.60 202.94 692.61 204.12
  Q 692.72 215.32 692.51 225.38
  A 1.12 1.12 0.0 0 1 691.39 226.47
  L 689.83 226.47
  A 1.24 1.24 0.0 0 1 688.59 225.23
  L 688.59 211.68
  Z"
/>
<path fill="#e06724" d="
  M 718.85 203.71
  L 718.85 206.04
  A 0.73 0.73 0.0 0 1 718.12 206.77
  L 707.58 206.77
  A 0.73 0.73 0.0 0 0 706.85 207.50
  L 706.85 211.91
  A 0.73 0.73 0.0 0 0 707.58 212.64
  L 716.92 212.64
  A 0.73 0.73 0.0 0 1 717.65 213.37
  L 717.65 215.42
  A 0.73 0.73 0.0 0 1 716.92 216.15
  L 707.57 216.15
  A 0.73 0.73 0.0 0 0 706.84 216.88
  L 706.84 221.93
  A 0.73 0.73 0.0 0 0 707.57 222.66
  L 718.59 222.66
  A 0.73 0.73 0.0 0 1 719.32 223.39
  L 719.32 225.54
  A 0.73 0.73 0.0 0 1 718.59 226.27
  L 703.38 226.27
  A 0.73 0.73 0.0 0 1 702.65 225.54
  L 702.65 203.71
  A 0.73 0.73 0.0 0 1 703.38 202.98
  L 718.12 202.98
  A 0.73 0.73 0.0 0 1 718.85 203.71
  Z"
/>
<path fill="#e06724" d="
  M 728.47 202.87
  C 734.22 202.80 741.06 202.03 744.32 206.13
  C 747.20 209.77 746.18 215.72 742.19 218.21
  A 0.71 0.70 -30.9 0 0 741.95 219.16
  L 745.65 225.57
  A 0.49 0.48 74.8 0 1 745.24 226.30
  L 743.25 226.30
  A 2.71 2.71 0.0 0 1 740.90 224.94
  L 738.15 220.18
  A 1.94 1.94 0.0 0 0 736.47 219.21
  L 732.57 219.21
  A 0.72 0.71 -90.0 0 0 731.86 219.93
  L 731.86 225.27
  A 1.10 1.09 0.0 0 1 730.76 226.36
  L 728.68 226.36
  A 1.04 1.04 0.0 0 1 727.64 225.32
  L 727.64 203.71
  A 0.84 0.84 0.0 0 1 728.47 202.87
  Z
  M 731.89 207.91
  L 732.01 214.67
  A 0.94 0.94 0.0 0 0 732.97 215.59
  L 737.10 215.52
  A 4.87 4.00 -1.0 0 0 741.89 211.43
  L 741.88 210.79
  A 4.87 4.00 -1.0 0 0 736.94 206.88
  L 732.82 206.95
  A 0.94 0.94 0.0 0 0 731.89 207.91
  Z"
/>
<rect fill="#e06724" x="781.85" y="202.90" width="4.04" height="23.64" rx="1.23"/>
<path fill="#e06724" d="
  M 496.82 220.99
  Q 492.81 221.00 492.27 221.01
  A 1.05 1.05 0.0 0 0 491.31 221.66
  L 489.77 225.51
  A 1.54 1.53 10.8 0 1 488.35 226.47
  L 486.16 226.48
  A 0.78 0.78 0.0 0 1 485.44 225.38
  Q 489.72 215.58 493.27 206.84
  Q 494.64 203.45 496.79 203.45
  Q 498.94 203.45 500.33 206.83
  Q 503.91 215.56 508.22 225.34
  A 0.78 0.78 0.0 0 1 507.51 226.44
  L 505.32 226.44
  A 1.54 1.53 -11.0 0 1 503.89 225.49
  L 502.33 221.64
  A 1.05 1.05 0.0 0 0 501.37 220.99
  Q 500.84 220.99 496.82 220.99
  Z
  M 493.30 217.13
  A 0.34 0.34 0.0 0 0 493.62 217.59
  L 500.08 217.57
  A 0.34 0.34 0.0 0 0 500.40 217.11
  L 497.14 208.95
  A 0.34 0.34 0.0 0 0 496.50 208.95
  L 493.30 217.13
  Z"
/>
<path fill="#e06724" d="
  M 804.56 203.22
  Q 806.74 203.22 808.14 206.65
  Q 811.75 215.49 816.10 225.40
  A 0.79 0.79 0.0 0 1 815.38 226.51
  L 813.16 226.51
  A 1.55 1.55 0.0 0 1 811.72 225.54
  L 810.15 221.64
  A 1.07 1.06 79.0 0 0 809.18 220.98
  Q 808.63 220.98 804.57 220.98
  Q 800.51 220.98 799.97 220.99
  A 1.07 1.06 -79.0 0 0 798.99 221.64
  L 797.43 225.54
  A 1.55 1.55 0.0 0 1 795.99 226.51
  L 793.77 226.52
  A 0.79 0.79 0.0 0 1 793.05 225.41
  Q 797.39 215.49 800.99 206.65
  Q 802.39 203.22 804.56 203.22
  Z
  M 801.56 217.61
  L 807.46 217.61
  A 0.58 0.57 79.2 0 0 807.99 216.82
  L 804.66 208.57
  A 0.35 0.35 0.0 0 0 804.00 208.58
  L 800.98 216.78
  A 0.62 0.62 0.0 0 0 801.56 217.61
  Z"
/>
<path fill="#e06724" d="
  M 435.5326 203.6094
  A 11.68 11.31 -103.0 0 1 449.1801 212.4458
  A 11.68 11.31 -103.0 0 1 440.7874 226.3706
  A 11.68 11.31 -103.0 0 1 427.1399 217.5342
  A 11.68 11.31 -103.0 0 1 435.5326 203.6094
  Z
  M 438.3590 207.0703
  A 7.91 7.29 -89.5 0 0 431.0003 214.9164
  A 7.91 7.29 -89.5 0 0 438.2210 222.8897
  A 7.91 7.29 -89.5 0 0 445.5797 215.0436
  A 7.91 7.29 -89.5 0 0 438.3590 207.0703
  Z"
/>
<path fill="#e06724" d="
  M 475.51 212.22
  A 0.15 0.15 0.0 0 0 475.23 212.15
  L 468.85 223.29
  A 1.01 1.01 0.0 0 1 467.10 223.30
  L 461.18 213.11
  A 0.39 0.39 0.0 0 0 460.45 213.32
  L 460.49 225.52
  A 0.89 0.89 0.0 0 1 459.60 226.42
  L 457.55 226.42
  A 0.95 0.95 0.0 0 1 456.60 225.48
  L 456.53 204.54
  A 0.78 0.76 -8.4 0 1 457.10 203.80
  Q 459.62 203.10 460.87 205.26
  Q 464.38 211.38 467.69 217.66
  A 0.30 0.30 0.0 0 0 468.21 217.67
  Q 472.23 210.92 475.17 205.34
  C 475.99 203.78 476.93 203.33 478.52 203.67
  Q 479.32 203.84 479.34 204.97
  Q 479.48 215.70 479.31 225.34
  A 1.07 1.07 0.0 0 1 478.24 226.38
  L 476.74 226.39
  A 1.19 1.19 0.0 0 1 475.55 225.20
  L 475.51 212.22
  Z"
/>
<path fill="#e06724" d="
  M 838.25 226.36
  L 824.12 226.36
  A 0.79 0.79 0.0 0 1 823.33 225.57
  L 823.33 204.29
  A 0.79 0.79 0.0 0 1 824.12 203.50
  L 826.56 203.50
  A 0.79 0.79 0.0 0 1 827.35 204.29
  L 827.35 221.98
  A 0.79 0.79 0.0 0 0 828.14 222.77
  L 838.25 222.77
  A 0.79 0.79 0.0 0 1 839.04 223.56
  L 839.04 225.57
  A 0.79 0.79 0.0 0 1 838.25 226.36
  Z"
/>
<path fill="#e06724" d="
  M 359.30 221.05
  Q 355.32 221.08 354.79 221.08
  A 1.04 1.04 0.0 0 0 353.84 221.73
  L 352.33 225.56
  A 1.52 1.51 10.6 0 1 350.92 226.52
  L 348.75 226.53
  A 0.77 0.77 0.0 0 1 348.04 225.45
  Q 352.24 215.72 355.72 207.04
  Q 357.06 203.68 359.19 203.66
  Q 361.33 203.65 362.72 207.00
  Q 366.30 215.64 370.61 225.32
  A 0.77 0.77 0.0 0 1 369.91 226.41
  L 367.74 226.42
  A 1.52 1.51 -11.2 0 1 366.32 225.48
  L 364.76 221.67
  A 1.04 1.04 0.0 0 0 363.81 221.03
  Q 363.28 221.03 359.30 221.05
  Z
  M 362.71 217.21
  L 359.70 209.74
  A 0.55 0.55 0.0 0 0 358.67 209.75
  L 355.95 217.16
  A 0.52 0.52 0.0 0 0 356.44 217.87
  L 362.27 217.87
  A 0.48 0.48 0.0 0 0 362.71 217.21
  Z"
/>
<path fill="#e06724" d="
  M 387.09 226.88
  C 382.10 226.91 378.23 224.09 377.64 218.94
  Q 377.08 214.08 377.49 204.83
  A 0.96 0.96 0.0 0 1 378.45 203.91
  L 380.48 203.91
  A 0.96 0.96 0.0 0 1 381.44 204.85
  Q 381.70 214.54 381.67 215.45
  C 381.54 219.50 382.49 223.14 387.06 223.11
  C 391.64 223.07 392.53 219.42 392.35 215.37
  Q 392.30 214.46 392.42 204.77
  A 0.96 0.96 0.0 0 1 393.37 203.82
  L 395.40 203.79
  A 0.96 0.96 0.0 0 1 396.37 204.69
  Q 396.92 213.94 396.43 218.80
  C 395.91 223.96 392.09 226.84 387.09 226.88
  Z"
/>
<path fill="#e06724" d="
  M 412.72 203.79
  Q 416.69 203.69 420.69 203.69
  A 1.07 1.06 0.1 0 1 421.76 204.75
  L 421.76 206.49
  A 1.04 1.03 -0.0 0 1 420.72 207.52
  L 415.54 207.52
  A 0.67 0.66 -89.6 0 0 414.88 208.18
  L 414.81 225.51
  A 1.15 1.15 0.0 0 1 414.03 226.59
  Q 414.01 226.59 412.78 226.60
  Q 411.55 226.60 411.52 226.59
  A 1.15 1.15 0.0 0 1 410.74 225.52
  L 410.58 208.19
  A 0.67 0.66 89.2 0 0 409.91 207.54
  L 404.73 207.56
  A 1.04 1.03 -0.3 0 1 403.69 206.54
  L 403.68 204.80
  A 1.07 1.06 -0.4 0 1 404.74 203.73
  Q 408.74 203.71 412.72 203.79
  Z"
/>
</svg>
