<?xml version="1.0" encoding="UTF-8" standalone="no"?>
<!DOCTYPE svg PUBLIC "-//W3C//DTD SVG 1.1//EN" "http://www.w3.org/Graphics/SVG/1.1/DTD/svg11.dtd">
<svg xmlns="http://www.w3.org/2000/svg" version="1.1" viewBox="0.00 0.00 40.00 40.00">
<path fill="#c5c5c5" d="
  M 37.5476 31.8191
  A 3.57 3.57 0.0 0 1 33.9528 35.3641
  L 6.8934 35.1752
  A 3.57 3.57 0.0 0 1 3.3485 31.5803
  L 3.5124 8.1009
  A 3.57 3.57 0.0 0 1 7.1072 4.5559
  L 34.1666 4.7448
  A 3.57 3.57 0.0 0 1 37.7115 8.3397
  L 37.5476 31.8191
  Z
  M 12.2780 8.6285
  A 0.58 0.58 0.0 0 0 11.7030 8.0434
  L 11.0231 8.0375
  A 0.58 0.58 0.0 0 0 10.4380 8.6124
  L 10.2420 31.0715
  A 0.58 0.58 0.0 0 0 10.8170 31.6566
  L 11.4969 31.6625
  A 0.58 0.58 0.0 0 0 12.0820 31.0876
  L 12.2780 8.6285
  Z
  M 15.4244 8.7090
  A 0.57 0.57 0.0 0 0 14.8664 8.1272
  L 14.4265 8.1180
  A 0.57 0.57 0.0 0 0 13.8447 8.6759
  L 13.3756 31.0710
  A 0.57 0.57 0.0 0 0 13.9336 31.6528
  L 14.3735 31.6620
  A 0.57 0.57 0.0 0 0 14.9553 31.1041
  L 15.4244 8.7090
  Z
  M 25.1059 8.7185
  A 0.61 0.61 0.0 0 0 24.5034 8.1011
  L 24.4634 8.1006
  A 0.61 0.61 0.0 0 0 23.8460 8.7031
  L 23.5741 30.9615
  A 0.61 0.61 0.0 0 0 24.1766 31.5789
  L 24.2166 31.5794
  A 0.61 0.61 0.0 0 0 24.8340 30.9769
  L 25.1059 8.7185
  Z
  M 34.2611 8.9395
  A 0.79 0.79 0.0 0 0 33.4850 8.1358
  L 33.0251 8.1278
  A 0.79 0.79 0.0 0 0 32.2214 8.9039
  L 31.8389 30.8205
  A 0.79 0.79 0.0 0 0 32.6150 31.6242
  L 33.0749 31.6322
  A 0.79 0.79 0.0 0 0 33.8786 30.8561
  L 34.2611 8.9395
  Z
  M 9.0963 8.8316
  A 0.63 0.63 0.0 0 0 8.4729 8.1950
  L 7.6330 8.1862
  A 0.63 0.63 0.0 0 0 6.9964 8.8096
  L 6.7637 31.0284
  A 0.63 0.63 0.0 0 0 7.3871 31.6650
  L 8.2270 31.6738
  A 0.63 0.63 0.0 0 0 8.8636 31.0504
  L 9.0963 8.8316
  Z
  M 18.8549 8.8065
  A 0.60 0.60 0.0 0 0 18.2644 8.1971
  L 17.5444 8.1858
  A 0.60 0.60 0.0 0 0 16.9351 8.7763
  L 16.5851 31.0535
  A 0.60 0.60 0.0 0 0 17.1756 31.6629
  L 17.8956 31.6742
  A 0.60 0.60 0.0 0 0 18.5049 31.0837
  L 18.8549 8.8065
  Z
  M 22.2369 8.7508
  A 0.56 0.56 0.0 0 0 21.6828 8.1849
  L 20.8629 8.1763
  A 0.56 0.56 0.0 0 0 20.2970 8.7305
  L 20.0631 31.0692
  A 0.56 0.56 0.0 0 0 20.6172 31.6351
  L 21.4371 31.6437
  A 0.56 0.56 0.0 0 0 22.0030 31.0895
  L 22.2369 8.7508
  Z
  M 28.3039 8.9227
  A 0.76 0.76 0.0 0 0 27.5533 8.1534
  L 27.1333 8.1483
  A 0.76 0.76 0.0 0 0 26.3641 8.8990
  L 26.0961 30.8373
  A 0.76 0.76 0.0 0 0 26.8467 31.6066
  L 27.2667 31.6117
  A 0.76 0.76 0.0 0 0 28.0359 30.8610
  L 28.3039 8.9227
  Z
  M 31.0328 8.7830
  A 0.62 0.62 0.0 0 0 30.4237 8.1523
  L 30.3637 8.1513
  A 0.62 0.62 0.0 0 0 29.7329 8.7603
  L 29.3472 30.8570
  A 0.62 0.62 0.0 0 0 29.9563 31.4877
  L 30.0163 31.4887
  A 0.62 0.62 0.0 0 0 30.6471 30.8797
  L 31.0328 8.7830
  Z"
/>
</svg>
